<svg width="40" height="40" viewBox="0 0 40 40" fill="none" xmlns="http://www.w3.org/2000/svg">
<circle cx="20" cy="20" r="20" fill="#DBE8FB"/>
<mask id="mask0_15_1294" style="mask-type:alpha" maskUnits="userSpaceOnUse" x="0" y="0" width="40" height="40">
<circle cx="20" cy="20" r="20" fill="#DBE8FB"/>
</mask>
<g mask="url(#mask0_15_1294)">
<path d="M20 26C24.375 26 28 22.4375 28 18C28 13.625 24.375 10 20 10C15.5625 10 12 13.625 12 18C12 22.4375 15.5625 26 20 26ZM25.5625 28H24.5C23.125 28.6875 21.625 29 20 29C18.375 29 16.8125 28.6875 15.4375 28H14.375C9.75 28 6 31.8125 6 36.4375V39C6 40.6875 7.3125 42 9 42H31C32.625 42 34 40.6875 34 39V36.4375C34 31.8125 30.1875 28 25.5625 28Z" fill="#C5D4EB"/>
</g>
</svg>
